<svg xmlns="http://www.w3.org/2000/svg" viewBox="0 0 360 360" fill="none">
  <title>Bevon Software</title>
  <rect width="360" height="360" rx="80" fill="#FFFFFF"/>
  <g transform="translate(75.8 72) scale(0.719)">
    <path fill="#5E279F" fill-rule="evenodd" d="M0.3 0.5L227.9 0.0L236.8 1.1L249.5 4.3L257.5 8.3L266.6 15.2L272.1 20.8L281.9 35.0L287.5 49.3L289.9 60.0L289.9 119.0L288.8 124.9L286.5 131.6L282.5 139.6L278.6 144.7L268.3 154.2L269.6 156.2L276.1 160.8L279.6 164.2L284.5 171.3L288.5 181.3L289.8 187.1L289.9 245.0L288.8 250.9L285.5 260.6L281.9 268.0L274.1 279.2L266.1 287.2L261.5 290.6L252.5 295.6L245.8 297.9L235.8 299.9L22.3 300.4L23.1 298.2L68.1 253.2L78.2 244.3L214.9 244.0L223.8 241.9L228.1 239.2L231.5 233.6L232.8 228.9L232.8 197.1L229.5 188.3L224.5 184.3L215.9 182.0L142.9 182.0L140.4 181.2L181.1 140.2L184.1 138.2L197.6 124.8L199.9 124.0L213.9 124.0L220.8 122.9L225.5 120.6L228.1 118.2L230.5 114.6L232.8 106.9L232.9 76.0L231.5 69.3L227.6 62.2L222.5 59.3L217.9 58.0L59.9 58.0L58.3 58.5L57.9 60.0L58.3 123.5L155.9 124.0L158.4 124.8L101.5 181.6L58.3 182.5L57.5 225.6L38.6 244.7L34.1 248.2L29.6 253.7L1.6 281.7L0.2 282.4L0.0 1.1Z"/>
  </g>
</svg>
